<?xml version="1.0" standalone="no"?>
<!DOCTYPE svg PUBLIC "-//W3C//DTD SVG 20010904//EN"
 "http://www.w3.org/TR/2001/REC-SVG-20010904/DTD/svg10.dtd">
<svg version="1.0" xmlns="http://www.w3.org/2000/svg"
 width="500.000000pt" height="500.000000pt" viewBox="0 0 500.000000 500.000000"
 preserveAspectRatio="xMidYMid meet">

<g transform="translate(0.000000,500.000000) scale(0.100000,-0.100000)"
fill="#000000" stroke="none">
<path d="M2971 2681 c-11 -11 -23 -33 -26 -48 -4 -16 -10 -36 -16 -45 -6 -12
-6 -18 1 -18 14 0 13 -83 -2 -98 -9 -9 -2 -12 33 -12 35 1 40 3 27 11 -13 7
-18 23 -18 53 0 37 4 45 23 50 l22 7 -23 9 c-19 8 -23 16 -20 47 3 37 4 38 41
36 27 -2 37 1 34 10 -6 21 -54 20 -76 -2z"/>
<path d="M1926 2681 c-14 -5 -16 -10 -8 -15 16 -10 16 -178 0 -194 -9 -9 -3
-12 27 -12 30 0 36 3 27 12 -7 7 -12 23 -12 37 l0 24 25 -23 c14 -13 23 -30
21 -37 -4 -9 5 -13 31 -13 l37 0 -37 38 c-20 21 -37 41 -37 45 0 4 15 16 33
27 l32 20 -34 0 c-19 0 -31 -3 -28 -7 9 -9 -12 -33 -29 -33 -11 0 -14 17 -14
70 0 72 -1 74 -34 61z"/>
<path d="M1560 2640 c1 -22 2 -23 11 -7 5 9 21 17 34 17 25 0 25 -2 25 -83 0
-51 -5 -88 -12 -95 -9 -9 -1 -12 37 -12 46 0 48 1 31 19 -13 15 -16 34 -14 92
3 72 4 74 31 77 21 3 29 -2 37 -20 9 -22 10 -22 7 5 l-2 29 -93 1 -92 2 0 -25z"/>
<path d="M2505 2658 c-50 -27 -71 -99 -45 -149 35 -65 182 -59 180 8 0 4 -6 1
-13 -8 -33 -43 -94 -46 -122 -6 -22 31 -19 110 3 130 28 25 87 22 106 -5 l16
-22 0 26 c0 21 -6 27 -31 32 -44 9 -71 7 -94 -6z"/>
<path d="M3038 2596 c-11 -8 -13 -24 -9 -65 7 -63 30 -87 57 -59 15 15 15 16
-2 15 -15 -2 -20 6 -22 41 -3 37 -1 42 17 42 28 0 26 12 -3 26 -17 8 -27 8
-38 0z"/>
<path d="M1795 2575 c-60 -59 5 -151 71 -100 18 15 18 15 -9 9 -31 -7 -57 9
-57 37 0 15 8 19 39 19 48 0 58 13 31 40 -26 26 -46 25 -75 -5z m55 -10 c0 -9
-9 -15 -25 -15 -24 0 -32 10 -18 23 12 13 43 7 43 -8z"/>
<path d="M2104 2585 c-11 -8 -14 -15 -6 -15 16 0 16 -82 0 -98 -9 -9 -3 -12
27 -12 30 0 36 3 27 12 -20 20 -15 86 8 98 33 18 43 3 38 -56 l-5 -54 35 0
c33 0 34 1 19 18 -9 10 -14 27 -11 38 3 11 0 32 -6 48 -10 26 -14 28 -50 23
-22 -3 -40 -1 -40 4 0 13 -13 11 -36 -6z"/>
<path d="M2314 2589 c-65 -33 -40 -129 34 -129 32 0 72 38 72 69 0 48 -61 82
-106 60z m50 -18 c18 -20 24 -69 12 -90 -11 -18 -44 -13 -56 8 -14 26 -13 74
2 89 16 16 22 15 42 -7z"/>
<path d="M2799 2581 c-13 -11 -21 -23 -16 -27 4 -4 18 2 30 14 26 24 37 20 37
-13 0 -15 -10 -26 -32 -36 -22 -9 -33 -21 -33 -34 0 -17 7 -20 48 -20 27 -1
56 5 65 12 16 11 16 12 0 13 -14 0 -18 9 -18 43 0 66 -34 86 -81 48z m48 -86
c-7 -16 -37 -21 -37 -5 0 10 32 31 39 25 2 -2 1 -11 -2 -20z"/>
<path d="M2682 2580 c-4 -3 -7 -31 -7 -62 l-1 -58 35 0 c32 0 33 1 18 18 -30
33 -17 97 18 90 10 -2 20 2 22 9 3 8 -9 11 -37 10 -22 -1 -44 -4 -48 -7z"/>
<path d="M3132 2483 c5 -26 38 -29 38 -4 0 15 -6 21 -21 21 -14 0 -19 -5 -17
-17z"/>
<path d="M2089 2273 c4 -52 7 -49 13 10 2 22 0 37 -7 37 -6 0 -9 -18 -6 -47z"/>
<path d="M2252 2278 c3 -39 28 -69 28 -33 0 9 -4 13 -10 10 -6 -4 -10 7 -10
27 0 25 3 29 10 18 8 -13 10 -12 10 3 0 9 -7 17 -16 17 -12 0 -14 -9 -12 -42z"/>
<path d="M2453 2275 c0 -27 2 -38 4 -22 2 15 2 37 0 50 -2 12 -4 0 -4 -28z"/>
<path d="M2743 2305 c-19 -20 -17 -75 2 -75 11 0 15 12 15 45 0 50 0 50 -17
30z m4 -57 c-3 -7 -5 -2 -5 12 0 14 2 19 5 13 2 -7 2 -19 0 -25z"/>
<path d="M2160 2276 c0 -19 5 -38 10 -41 6 -4 10 10 10 34 0 23 -4 41 -10 41
-5 0 -10 -15 -10 -34z"/>
<path d="M2359 2304 c-3 -20 3 -59 9 -66 4 -4 7 9 6 28 -1 31 -12 60 -15 38z"/>
<path d="M2125 2290 c-3 -5 -1 -10 6 -10 10 0 10 -3 1 -12 -17 -17 -15 -38 3
-38 10 0 15 11 15 35 0 34 -12 46 -25 25z"/>
<path d="M2194 2288 c-4 -7 -3 -8 4 -4 7 4 12 3 12 -3 0 -5 -4 -13 -10 -16
-15 -10 -12 -35 5 -35 10 0 15 11 15 35 0 35 -12 46 -26 23z"/>
<path d="M2320 2254 c0 -47 1 -48 16 -26 17 25 16 63 -3 70 -9 2 -13 -10 -13
-44z m17 -6 c-3 -7 -5 -2 -5 12 0 14 2 19 5 13 2 -7 2 -19 0 -25z"/>
<path d="M2390 2290 c0 -6 5 -8 10 -5 6 3 10 1 10 -4 0 -6 -4 -11 -10 -11 -5
0 -10 -9 -10 -20 0 -11 7 -20 16 -20 11 0 14 8 12 32 -3 29 -28 54 -28 28z"/>
<path d="M2471 2263 c1 -37 1 -38 9 -8 l7 30 5 -30 c5 -28 5 -28 7 8 1 27 -3
37 -14 37 -11 0 -15 -10 -14 -37z"/>
<path d="M2514 2286 c-8 -21 -1 -49 14 -54 8 -2 12 8 12 32 0 36 -16 49 -26
22z m13 -33 c-3 -10 -5 -4 -5 12 0 17 2 24 5 18 2 -7 2 -21 0 -30z"/>
<path d="M2550 2280 c0 -43 16 -56 24 -19 3 18 4 34 1 37 -3 3 -5 -1 -5 -9 0
-11 -2 -11 -10 1 -8 12 -10 10 -10 -10z"/>
<path d="M2592 2266 c-1 -32 1 -35 29 -34 34 1 47 14 30 31 -15 15 -14 30 1
21 7 -4 8 -3 4 4 -13 21 -28 13 -24 -13 3 -14 2 -25 -3 -25 -4 0 -9 10 -11 22
-5 36 -25 32 -26 -6z"/>
<path d="M2691 2263 l2 -38 7 35 7 35 5 -35 5 -35 1 38 c2 27 -2 37 -13 37
-11 0 -15 -10 -14 -37z"/>
<path d="M2774 2286 c-8 -21 -1 -49 14 -54 8 -2 12 8 12 32 0 36 -16 49 -26
22z m13 -33 c-3 -10 -5 -4 -5 12 0 17 2 24 5 18 2 -7 2 -21 0 -30z"/>
<path d="M2290 2260 c0 -16 5 -30 10 -30 6 0 10 14 10 30 0 17 -4 30 -10 30
-5 0 -10 -13 -10 -30z"/>
<path d="M2672 2260 c0 -19 2 -27 5 -17 2 9 2 25 0 35 -3 9 -5 1 -5 -18z"/>
</g>
</svg>
